<?xml version="1.0" encoding="UTF-8" standalone="no"?>
<!-- Created with Inkscape (http://www.inkscape.org/) -->

<svg
   xmlns:dc="http://purl.org/dc/elements/1.1/"
   xmlns:cc="http://creativecommons.org/ns#"
   xmlns:rdf="http://www.w3.org/1999/02/22-rdf-syntax-ns#"
   xmlns:svg="http://www.w3.org/2000/svg"
   xmlns="http://www.w3.org/2000/svg"
   xmlns:sodipodi="http://sodipodi.sourceforge.net/DTD/sodipodi-0.dtd"
   xmlns:inkscape="http://www.inkscape.org/namespaces/inkscape"
   width="210mm"
   height="297mm"
   viewBox="0 0 210 297"
   version="1.1"
   id="svg8"
   inkscape:version="0.92.4 (5da689c313, 2019-01-14)"
   sodipodi:docname="key.svg">
  <defs
     id="defs2" />
  <sodipodi:namedview
     id="base"
     pagecolor="#ffffff"
     bordercolor="#666666"
     borderopacity="1.0"
     inkscape:pageopacity="0.0"
     inkscape:pageshadow="2"
     inkscape:zoom="3.959798"
     inkscape:cx="226.67249"
     inkscape:cy="517.74516"
     inkscape:document-units="mm"
     inkscape:current-layer="layer1"
     showgrid="false"
     inkscape:window-width="1819"
     inkscape:window-height="1057"
     inkscape:window-x="1592"
     inkscape:window-y="112"
     inkscape:window-maximized="1" />
  <metadata
     id="metadata5">
    <rdf:RDF>
      <cc:Work
         rdf:about="">
        <dc:format>image/svg+xml</dc:format>
        <dc:type
           rdf:resource="http://purl.org/dc/dcmitype/StillImage" />
        <dc:title></dc:title>
      </cc:Work>
    </rdf:RDF>
  </metadata>
  <g
     inkscape:label="Layer 1"
     inkscape:groupmode="layer"
     id="layer1">
    <g
       id="g923"
       transform="matrix(0.14790448,0,0,0.14790448,64.988726,153.56587)"
       inkscape:export-filename="C:\projects\game dev\gitfork\cyberpunk-jam-2019\Collectibles\key.png"
       inkscape:export-xdpi="96"
       inkscape:export-ydpi="96">
      <g
         id="g862">
        <path
           style="opacity:1;fill:#000000;fill-opacity:1;stroke:none;stroke-width:0.99999994;stroke-linecap:round;stroke-linejoin:round;stroke-miterlimit:4;stroke-dasharray:none;stroke-dashoffset:0;stroke-opacity:1"
           d="m -660.64062,257.82812 a 179.80716,179.80716 0 0 0 -179.80665,179.8086 179.80716,179.80716 0 0 0 179.80665,179.80664 179.80716,179.80716 0 0 0 179.80859,-179.80664 179.80716,179.80716 0 0 0 -179.80859,-179.8086 z m 0,60.60938 A 119.19801,119.19801 0 0 1 -541.44141,437.63672 119.19801,119.19801 0 0 1 -660.64062,556.83398 119.19801,119.19801 0 0 1 -779.83789,437.63672 119.19801,119.19801 0 0 1 -660.64062,318.4375 Z"
           transform="scale(0.26458333)"
           id="path817"
           inkscape:connector-curvature="0" />
        <path
           style="opacity:1;fill:#000000;fill-opacity:1;stroke:none;stroke-width:0.26458332;stroke-linecap:round;stroke-linejoin:round;stroke-miterlimit:4;stroke-dasharray:none;stroke-dashoffset:0;stroke-opacity:1"
           d="M -129.89299,109.91133 H 35.814102 l 8.886712,0.13364 -8.886712,14.83345 H -129.89299 Z"
           id="rect822"
           inkscape:connector-curvature="0"
           sodipodi:nodetypes="cccccc" />
        <path
           style="opacity:1;fill:#000000;fill-opacity:1;stroke:none;stroke-width:0.17737734;stroke-linecap:round;stroke-linejoin:round;stroke-miterlimit:4;stroke-dasharray:none;stroke-dashoffset:0;stroke-opacity:1"
           d="M 83.387944,97.704892 A 47.573977,21.381628 0 0 0 35.814102,119.08653 v 5.7919 a 5.3389138,5.8586306 0 0 1 3.84111,5.61929 5.3389138,5.8586306 0 0 1 -3.84111,5.61981 v 4.65553 a 7.0398062,6.898065 0 0 1 5.133539,6.63371 7.0398062,6.898065 0 0 1 -5.133539,6.63887 v 4.59662 h 16.036232 v -39.55573 a 31.537806,14.174338 0 0 1 31.53761,-14.17433 31.537806,14.174338 0 0 1 31.538126,14.17433 h -0.0377 v 12.94185 a 8.6862591,7.6171813 0 0 1 7.25382,7.50445 8.6862591,7.6171813 0 0 1 -7.25382,7.51065 v 11.59878 h 16.03674 v -39.55573 h 0.0372 A 47.573977,21.381628 0 0 0 83.387944,97.704892 Z"
           id="path824"
           inkscape:connector-curvature="0" />
        <rect
           style="opacity:1;fill:#000000;fill-opacity:1;stroke:none;stroke-width:0.26458332;stroke-linecap:round;stroke-linejoin:round;stroke-miterlimit:4;stroke-dasharray:none;stroke-dashoffset:0;stroke-opacity:1"
           id="rect834"
           width="68.955536"
           height="8.5526247"
           x="51.048717"
           y="114.27565" />
        <path
           style="opacity:1;fill:#000000;fill-opacity:1;stroke:none;stroke-width:0.26458332;stroke-linecap:round;stroke-linejoin:round;stroke-miterlimit:4;stroke-dasharray:none;stroke-dashoffset:0;stroke-opacity:1"
           d="m 78.577383,119.88855 v 5.21829 a 4.3467263,3.9687499 0 0 1 4.325834,3.96771 4.3467263,3.9687499 0 0 1 -4.325834,3.96823 v 2.9037 a 4.5357142,5.3861607 0 0 1 3.852995,5.31803 4.5357142,5.3861607 0 0 1 -3.852995,5.3206 v 4.30671 h 10.957988 v -31.00327 z"
           id="rect836"
           inkscape:connector-curvature="0" />
        <path
           id="path854"
           d="m -219.39555,52.342022 a 21.871663,21.871663 0 0 0 -21.8716,21.871838 21.871663,21.871663 0 0 0 21.8716,21.8716 21.871663,21.871663 0 0 0 21.87184,-21.8716 21.871663,21.871663 0 0 0 -21.87184,-21.871838 z m 0,7.372498 a 14.499192,14.499192 0 0 1 14.49934,14.49934 14.499192,14.499192 0 0 1 -14.49934,14.4991 14.499192,14.499192 0 0 1 -14.4991,-14.4991 14.499192,14.499192 0 0 1 14.4991,-14.49934 z"
           style="opacity:1;fill:#000000;fill-opacity:1;stroke:none;stroke-width:0.12163955;stroke-linecap:round;stroke-linejoin:round;stroke-miterlimit:4;stroke-dasharray:none;stroke-dashoffset:0;stroke-opacity:1"
           inkscape:connector-curvature="0" />
      </g>
      <g
         id="g890"
         transform="translate(-3.1750001,-3.1750001)"
         style="fill:#ffd42a">
        <path
           style="opacity:1;fill:#ffd42a;fill-opacity:1;stroke:none;stroke-width:0.99999994;stroke-linecap:round;stroke-linejoin:round;stroke-miterlimit:4;stroke-dasharray:none;stroke-dashoffset:0;stroke-opacity:1"
           d="m -660.64062,257.82812 a 179.80716,179.80716 0 0 0 -179.80665,179.8086 179.80716,179.80716 0 0 0 179.80665,179.80664 179.80716,179.80716 0 0 0 179.80859,-179.80664 179.80716,179.80716 0 0 0 -179.80859,-179.8086 z m 0,60.60938 A 119.19801,119.19801 0 0 1 -541.44141,437.63672 119.19801,119.19801 0 0 1 -660.64062,556.83398 119.19801,119.19801 0 0 1 -779.83789,437.63672 119.19801,119.19801 0 0 1 -660.64062,318.4375 Z"
           transform="scale(0.26458333)"
           id="path878"
           inkscape:connector-curvature="0" />
        <path
           style="opacity:1;fill:#ffd42a;fill-opacity:1;stroke:none;stroke-width:0.26458332;stroke-linecap:round;stroke-linejoin:round;stroke-miterlimit:4;stroke-dasharray:none;stroke-dashoffset:0;stroke-opacity:1"
           d="M -129.89299,109.91133 H 35.814102 l 8.886712,0.13364 -8.886712,14.83345 H -129.89299 Z"
           id="path880"
           inkscape:connector-curvature="0"
           sodipodi:nodetypes="cccccc" />
        <path
           style="opacity:1;fill:#ffd42a;fill-opacity:1;stroke:none;stroke-width:0.17737734;stroke-linecap:round;stroke-linejoin:round;stroke-miterlimit:4;stroke-dasharray:none;stroke-dashoffset:0;stroke-opacity:1"
           d="M 83.387944,97.704892 A 47.573977,21.381628 0 0 0 35.814102,119.08653 v 5.7919 a 5.3389138,5.8586306 0 0 1 3.84111,5.61929 5.3389138,5.8586306 0 0 1 -3.84111,5.61981 v 4.65553 a 7.0398062,6.898065 0 0 1 5.133539,6.63371 7.0398062,6.898065 0 0 1 -5.133539,6.63887 v 4.59662 h 16.036232 v -39.55573 a 31.537806,14.174338 0 0 1 31.53761,-14.17433 31.537806,14.174338 0 0 1 31.538126,14.17433 h -0.0377 v 12.94185 a 8.6862591,7.6171813 0 0 1 7.25382,7.50445 8.6862591,7.6171813 0 0 1 -7.25382,7.51065 v 11.59878 h 16.03674 v -39.55573 h 0.0372 A 47.573977,21.381628 0 0 0 83.387944,97.704892 Z"
           id="path882"
           inkscape:connector-curvature="0" />
        <rect
           style="opacity:1;fill:#ffd42a;fill-opacity:1;stroke:none;stroke-width:0.26458332;stroke-linecap:round;stroke-linejoin:round;stroke-miterlimit:4;stroke-dasharray:none;stroke-dashoffset:0;stroke-opacity:1"
           id="rect884"
           width="68.955536"
           height="8.5526247"
           x="51.048717"
           y="114.27565" />
        <path
           style="opacity:1;fill:#ffd42a;fill-opacity:1;stroke:none;stroke-width:0.26458332;stroke-linecap:round;stroke-linejoin:round;stroke-miterlimit:4;stroke-dasharray:none;stroke-dashoffset:0;stroke-opacity:1"
           d="m 78.577383,119.88855 v 5.21829 a 4.3467263,3.9687499 0 0 1 4.325834,3.96771 4.3467263,3.9687499 0 0 1 -4.325834,3.96823 v 2.9037 a 4.5357142,5.3861607 0 0 1 3.852995,5.31803 4.5357142,5.3861607 0 0 1 -3.852995,5.3206 v 4.30671 h 10.957988 v -31.00327 z"
           id="path886"
           inkscape:connector-curvature="0" />
        <path
           id="path888"
           d="m -219.39555,52.342022 a 21.871663,21.871663 0 0 0 -21.8716,21.871838 21.871663,21.871663 0 0 0 21.8716,21.8716 21.871663,21.871663 0 0 0 21.87184,-21.8716 21.871663,21.871663 0 0 0 -21.87184,-21.871838 z m 0,7.372498 a 14.499192,14.499192 0 0 1 14.49934,14.49934 14.499192,14.499192 0 0 1 -14.49934,14.4991 14.499192,14.499192 0 0 1 -14.4991,-14.4991 14.499192,14.499192 0 0 1 14.4991,-14.49934 z"
           style="opacity:1;fill:#ffd42a;fill-opacity:1;stroke:none;stroke-width:0.12163955;stroke-linecap:round;stroke-linejoin:round;stroke-miterlimit:4;stroke-dasharray:none;stroke-dashoffset:0;stroke-opacity:1"
           inkscape:connector-curvature="0" />
      </g>
      <g
         style="fill:#aa8800;fill-opacity:1"
         transform="translate(-1.5875,-1.5875)"
         id="g876">
        <path
           inkscape:connector-curvature="0"
           id="path864"
           transform="scale(0.26458333)"
           d="m -660.64062,257.82812 a 179.80716,179.80716 0 0 0 -179.80665,179.8086 179.80716,179.80716 0 0 0 179.80665,179.80664 179.80716,179.80716 0 0 0 179.80859,-179.80664 179.80716,179.80716 0 0 0 -179.80859,-179.8086 z m 0,60.60938 A 119.19801,119.19801 0 0 1 -541.44141,437.63672 119.19801,119.19801 0 0 1 -660.64062,556.83398 119.19801,119.19801 0 0 1 -779.83789,437.63672 119.19801,119.19801 0 0 1 -660.64062,318.4375 Z"
           style="opacity:1;fill:#aa8800;fill-opacity:1;stroke:none;stroke-width:0.99999994;stroke-linecap:round;stroke-linejoin:round;stroke-miterlimit:4;stroke-dasharray:none;stroke-dashoffset:0;stroke-opacity:1" />
        <path
           sodipodi:nodetypes="cccccc"
           inkscape:connector-curvature="0"
           id="path866"
           d="M -129.89299,109.91133 H 35.814102 l 8.886712,0.13364 -8.886712,14.83345 H -129.89299 Z"
           style="opacity:1;fill:#aa8800;fill-opacity:1;stroke:none;stroke-width:0.26458332;stroke-linecap:round;stroke-linejoin:round;stroke-miterlimit:4;stroke-dasharray:none;stroke-dashoffset:0;stroke-opacity:1" />
        <path
           inkscape:connector-curvature="0"
           id="path868"
           d="M 83.387944,97.704892 A 47.573977,21.381628 0 0 0 35.814102,119.08653 v 5.7919 a 5.3389138,5.8586306 0 0 1 3.84111,5.61929 5.3389138,5.8586306 0 0 1 -3.84111,5.61981 v 4.65553 a 7.0398062,6.898065 0 0 1 5.133539,6.63371 7.0398062,6.898065 0 0 1 -5.133539,6.63887 v 4.59662 h 16.036232 v -39.55573 a 31.537806,14.174338 0 0 1 31.53761,-14.17433 31.537806,14.174338 0 0 1 31.538126,14.17433 h -0.0377 v 12.94185 a 8.6862591,7.6171813 0 0 1 7.25382,7.50445 8.6862591,7.6171813 0 0 1 -7.25382,7.51065 v 11.59878 h 16.03674 v -39.55573 h 0.0372 A 47.573977,21.381628 0 0 0 83.387944,97.704892 Z"
           style="opacity:1;fill:#aa8800;fill-opacity:1;stroke:none;stroke-width:0.17737734;stroke-linecap:round;stroke-linejoin:round;stroke-miterlimit:4;stroke-dasharray:none;stroke-dashoffset:0;stroke-opacity:1" />
        <rect
           y="114.27565"
           x="51.048717"
           height="8.5526247"
           width="68.955536"
           id="rect870"
           style="opacity:1;fill:#aa8800;fill-opacity:1;stroke:none;stroke-width:0.26458332;stroke-linecap:round;stroke-linejoin:round;stroke-miterlimit:4;stroke-dasharray:none;stroke-dashoffset:0;stroke-opacity:1" />
        <path
           inkscape:connector-curvature="0"
           id="path872"
           d="m 78.577383,119.88855 v 5.21829 a 4.3467263,3.9687499 0 0 1 4.325834,3.96771 4.3467263,3.9687499 0 0 1 -4.325834,3.96823 v 2.9037 a 4.5357142,5.3861607 0 0 1 3.852995,5.31803 4.5357142,5.3861607 0 0 1 -3.852995,5.3206 v 4.30671 h 10.957988 v -31.00327 z"
           style="opacity:1;fill:#aa8800;fill-opacity:1;stroke:none;stroke-width:0.26458332;stroke-linecap:round;stroke-linejoin:round;stroke-miterlimit:4;stroke-dasharray:none;stroke-dashoffset:0;stroke-opacity:1" />
        <path
           inkscape:connector-curvature="0"
           style="opacity:1;fill:#aa8800;fill-opacity:1;stroke:none;stroke-width:0.12163955;stroke-linecap:round;stroke-linejoin:round;stroke-miterlimit:4;stroke-dasharray:none;stroke-dashoffset:0;stroke-opacity:1"
           d="m -219.39555,52.342022 a 21.871663,21.871663 0 0 0 -21.8716,21.871838 21.871663,21.871663 0 0 0 21.8716,21.8716 21.871663,21.871663 0 0 0 21.87184,-21.8716 21.871663,21.871663 0 0 0 -21.87184,-21.871838 z m 0,7.372498 a 14.499192,14.499192 0 0 1 14.49934,14.49934 14.499192,14.499192 0 0 1 -14.49934,14.4991 14.499192,14.499192 0 0 1 -14.4991,-14.4991 14.499192,14.499192 0 0 1 14.4991,-14.49934 z"
           id="path874" />
      </g>
    </g>
  </g>
</svg>
